<svg width="168" height="168" viewBox="0 0 168 168" fill="none" xmlns="http://www.w3.org/2000/svg">
<g filter="url(#filter0_dd_316_2)">
<rect x="23" y="23" width="128" height="128" rx="64" fill="white"/>
<g filter="url(#filter1_ii_316_2)">
<path fill-rule="evenodd" clip-rule="evenodd" d="M84.913 52.152C85.5668 50.5318 86.2526 48.8322 87 47C87.7382 48.7324 88.4195 50.3441 89.0698 51.8823C94.8761 65.6159 98.209 73.4994 117.429 109.285C117.595 109.594 117.655 109.663 118.048 110.569C118.501 111.476 118.388 111.249 119.181 112.722C119.521 113.402 119.748 113.742 120.223 114.47C122.325 118.369 124.534 122.46 127 127C114.494 119.78 104.76 115.286 95.7013 113.514C96.0025 112.149 96.18 110.679 96.2187 109.149C96.42 101.025 92.5225 94.0938 87.5175 93.67C82.5112 93.2463 78.285 99.4925 78.0838 107.615L78.0737 108.015C78.0587 109.921 78.2675 111.756 78.66 113.445C69.5025 115.168 59.675 119.683 47 127C63.1313 98.015 71.0862 82.9388 76.16 72.3513C76.6338 71.3626 76.5751 71.5892 76.915 70.9093C77.1749 70.3897 77.255 70.2295 77.3125 69.92C80.4444 63.2266 82.4517 58.2519 84.913 52.152ZM86.9013 110.925C90.2667 110.925 92.995 108.197 92.995 104.831C92.995 101.466 90.2667 98.7377 86.9013 98.7377C83.5358 98.7377 80.8075 101.466 80.8075 104.831C80.8075 108.197 83.5358 110.925 86.9013 110.925Z" fill="#E0E5EC"/>
</g>
</g>
<defs>
<filter id="filter0_dd_316_2" x="0" y="0" width="168" height="168" filterUnits="userSpaceOnUse" color-interpolation-filters="sRGB">
<feFlood flood-opacity="0" result="BackgroundImageFix"/>
<feColorMatrix in="SourceAlpha" type="matrix" values="0 0 0 0 0 0 0 0 0 0 0 0 0 0 0 0 0 0 127 0" result="hardAlpha"/>
<feOffset dx="-3" dy="-3"/>
<feGaussianBlur stdDeviation="10"/>
<feComposite in2="hardAlpha" operator="out"/>
<feColorMatrix type="matrix" values="0 0 0 0 0.904167 0 0 0 0 0.944097 0 0 0 0 1 0 0 0 1 0"/>
<feBlend mode="normal" in2="BackgroundImageFix" result="effect1_dropShadow_316_2"/>
<feColorMatrix in="SourceAlpha" type="matrix" values="0 0 0 0 0 0 0 0 0 0 0 0 0 0 0 0 0 0 127 0" result="hardAlpha"/>
<feOffset dx="3" dy="3"/>
<feGaussianBlur stdDeviation="6"/>
<feComposite in2="hardAlpha" operator="out"/>
<feColorMatrix type="matrix" values="0 0 0 0 0.639216 0 0 0 0 0.694118 0 0 0 0 0.776471 0 0 0 0.25 0"/>
<feBlend mode="normal" in2="effect1_dropShadow_316_2" result="effect2_dropShadow_316_2"/>
<feBlend mode="normal" in="SourceGraphic" in2="effect2_dropShadow_316_2" result="shape"/>
</filter>
<filter id="filter1_ii_316_2" x="46" y="46" width="82" height="82" filterUnits="userSpaceOnUse" color-interpolation-filters="sRGB">
<feFlood flood-opacity="0" result="BackgroundImageFix"/>
<feBlend mode="normal" in="SourceGraphic" in2="BackgroundImageFix" result="shape"/>
<feColorMatrix in="SourceAlpha" type="matrix" values="0 0 0 0 0 0 0 0 0 0 0 0 0 0 0 0 0 0 127 0" result="hardAlpha"/>
<feOffset dx="1" dy="1"/>
<feGaussianBlur stdDeviation="2"/>
<feComposite in2="hardAlpha" operator="arithmetic" k2="-1" k3="1"/>
<feColorMatrix type="matrix" values="0 0 0 0 0.639216 0 0 0 0 0.694118 0 0 0 0 0.776471 0 0 0 1 0"/>
<feBlend mode="normal" in2="shape" result="effect1_innerShadow_316_2"/>
<feColorMatrix in="SourceAlpha" type="matrix" values="0 0 0 0 0 0 0 0 0 0 0 0 0 0 0 0 0 0 127 0" result="hardAlpha"/>
<feOffset dx="-1" dy="-1"/>
<feGaussianBlur stdDeviation="2"/>
<feComposite in2="hardAlpha" operator="arithmetic" k2="-1" k3="1"/>
<feColorMatrix type="matrix" values="0 0 0 0 1 0 0 0 0 1 0 0 0 0 1 0 0 0 1 0"/>
<feBlend mode="normal" in2="effect1_innerShadow_316_2" result="effect2_innerShadow_316_2"/>
</filter>
</defs>
</svg>
